<svg width="44" height="44" viewBox="0 0 44 44" fill="none" xmlns="http://www.w3.org/2000/svg">
<g clip-path="url(#clip0_1_12)">
<path fill-rule="evenodd" clip-rule="evenodd" d="M24.6578 22.8945V0.161133C36.2202 1.56859 44.6818 11.7446 43.9565 23.3699C43.2311 34.9952 33.5702 44.0405 21.9224 43.9996C21.2331 43.9996 20.5584 43.9703 19.8911 43.9043V24.9183C19.8891 24.853 19.9137 24.7894 19.9593 24.7425C20.005 24.6956 20.0677 24.669 20.1331 24.669H22.8611C23.8447 24.6692 24.6457 23.8781 24.6578 22.8945ZM24.1877 33.9971C22.669 33.9971 21.4379 32.7661 21.4379 31.2471C21.4379 29.7284 22.669 28.4971 24.1877 28.4971C25.7066 28.4971 26.9377 29.7284 26.9377 31.2471C26.9397 31.9772 26.6506 32.6777 26.1345 33.194C25.6183 33.7101 24.9177 33.9992 24.1877 33.9971ZM27.8852 31.2471C27.8852 32.7661 29.1163 33.9971 30.6352 33.9971C31.365 33.9992 32.0655 33.7101 32.5818 33.194C33.0979 32.6777 33.387 31.9772 33.385 31.2471C33.385 29.7284 32.1539 28.4971 30.6352 28.4971C29.1163 28.4971 27.8852 29.7284 27.8852 31.2471ZM34.3303 31.2471C34.3303 32.7661 35.5615 33.9971 37.0803 33.9971C37.8101 33.9992 38.5108 33.7101 39.0269 33.194C39.543 32.6777 39.8321 31.9772 39.8303 31.2471C39.8303 29.7284 38.599 28.4971 37.0803 28.4971C35.5615 28.4971 34.3303 29.7284 34.3303 31.2471Z" fill="#00B956"/>
<path fill-rule="evenodd" clip-rule="evenodd" d="M0.127616 19.646C1.32686 8.50128 10.7135 0.0400798 21.9225 0H21.9665V21.7653C21.9626 21.896 21.8554 22 21.7245 22H18.9671C18.0177 22.0385 17.2625 22.8098 17.2439 23.76V43.4791C6.30003 41.0553 -1.07163 30.7908 0.127616 19.646ZM14.9567 15.3935C14.9567 16.9123 16.1879 18.1435 17.7067 18.1435C18.436 18.1435 19.1354 17.8538 19.6511 17.3381C20.1668 16.8224 20.4567 16.1229 20.4567 15.3935C20.4567 13.8748 19.2254 12.6435 17.7067 12.6435C16.1879 12.6435 14.9567 13.8748 14.9567 15.3935Z" fill="#00B956"/>
</g>
<defs>
<clipPath id="clip0_1_12">
<rect width="44" height="44" fill="white"/>
</clipPath>
</defs>
</svg>
